<svg width="32" height="32" viewBox="0 0 32 32" fill="none" xmlns="http://www.w3.org/2000/svg">
<circle cx="16" cy="16" r="16" fill="url(#paint0_linear_83_5)"/>
<path d="M22 17H17V22C17 22.55 16.55 23 16 23C15.45 23 15 22.55 15 22V17H10C9.45 17 9 16.55 9 16C9 15.45 9.45 15 10 15H15V10C15 9.45 15.45 9 16 9C16.55 9 17 9.45 17 10V15H22C22.55 15 23 15.45 23 16C23 16.55 22.55 17 22 17Z" fill="#333162"/>
<defs>
<linearGradient id="paint0_linear_83_5" x1="0" y1="0" x2="32" y2="32" gradientUnits="userSpaceOnUse">
<stop stop-color="#FF527F"/>
<stop offset="1" stop-color="#FD9590"/>
</linearGradient>
</defs>
</svg>
