<svg width="24" height="24" viewBox="0 0 24 24" fill="none" xmlns="http://www.w3.org/2000/svg">
<g opacity="0.6">
<path d="M17 11C18.66 11 19.99 9.66 19.99 8C19.99 6.34 18.66 5 17 5C15.34 5 14 6.34 14 8C14 9.66 15.34 11 17 11ZM9 11C10.66 11 11.99 9.66 11.99 8C11.99 6.34 10.66 5 9 5C7.34 5 6 6.34 6 8C6 9.66 7.34 11 9 11ZM9 13C6.67 13 2 14.17 2 16.5V18C2 18.55 2.45 19 3 19H15C15.55 19 16 18.55 16 18V16.5C16 14.17 11.33 13 9 13ZM17 13C16.71 13 16.38 13.02 16.03 13.05C16.05 13.06 16.06 13.08 16.07 13.09C17.21 13.92 18 15.03 18 16.5V18C18 18.35 17.93 18.69 17.82 19H23C23.55 19 24 18.55 24 18V16.5C24 14.17 19.33 13 17 13Z" fill="#FCFCFC"/>
</g>
</svg>
